<?xml version="1.0" standalone="no"?>
<!DOCTYPE svg PUBLIC "-//W3C//DTD SVG 20010904//EN"
 "http://www.w3.org/TR/2001/REC-SVG-20010904/DTD/svg10.dtd">
<svg version="1.0" xmlns="http://www.w3.org/2000/svg"
 width="720.000000pt" height="720.000000pt" viewBox="0 0 720.000000 720.000000"
 preserveAspectRatio="xMidYMid meet">

<g transform="translate(0.000000,720.000000) scale(0.100000,-0.100000)"
fill="#000000" stroke="none">
<path d="M2775 7010 c-22 -4 -68 -13 -102 -20 -41 -8 -63 -17 -63 -26 0 -8
-10 -15 -22 -16 -13 0 -28 -2 -34 -2 -18 -2 -68 -30 -80 -45 -18 -23 -51 3
-59 48 l-6 39 -42 -5 c-23 -3 -47 -10 -53 -15 -6 -4 -18 -6 -26 -3 -28 11 -82
-21 -93 -56 -8 -24 -18 -34 -33 -35 -40 -3 -42 -4 -42 -24 0 -10 -9 -24 -20
-30 -11 -6 -20 -20 -20 -31 0 -29 -20 -32 -65 -10 -35 17 -41 17 -51 3 -6 -8
-16 -12 -22 -8 -11 6 -37 -63 -27 -72 2 -3 -11 -23 -29 -46 -37 -45 -55 -118
-35 -142 18 -22 -8 -47 -41 -40 -15 3 -33 0 -40 -7 -9 -8 -11 -8 -7 -1 5 8 -7
13 -36 16 -23 2 -43 1 -45 -4 -2 -4 -27 -8 -57 -8 -49 0 -68 -9 -77 -35 -1 -5
-6 -9 -10 -8 -4 2 -10 -6 -13 -17 -9 -28 -33 -25 -79 10 -22 17 -48 30 -59 30
-12 0 -17 6 -15 18 2 11 11 16 26 14 15 -2 22 2 22 12 0 10 -9 16 -25 16 -14
0 -25 -4 -25 -10 0 -5 -6 -10 -14 -10 -9 0 -16 -12 -18 -32 -3 -31 -5 -33 -48
-35 -27 -2 -50 -9 -57 -19 -6 -9 -16 -13 -22 -9 -6 3 -11 -2 -11 -12 0 -11 -7
-28 -15 -39 -8 -10 -15 -27 -15 -36 0 -9 -16 -29 -35 -44 -19 -14 -35 -34 -35
-44 0 -10 -18 -40 -40 -68 -29 -36 -40 -59 -40 -84 0 -18 -8 -56 -18 -83 -14
-39 -18 -75 -16 -160 1 -60 3 -114 5 -120 1 -5 -1 -23 -6 -38 -5 -20 -3 -33 9
-46 15 -17 15 -19 1 -25 -15 -5 -23 6 -39 57 -10 30 -26 9 -26 -34 0 -43 16
-83 29 -74 9 5 25 -55 17 -63 -10 -10 -26 11 -26 34 0 33 -20 30 -53 -8 -19
-21 -27 -38 -23 -52 3 -12 6 -26 6 -32 0 -7 12 -15 28 -19 28 -7 112 -90 112
-112 0 -7 -18 -25 -40 -39 -33 -22 -44 -25 -69 -16 l-29 10 24 -61 24 -61 -31
-62 c-25 -52 -29 -66 -19 -84 6 -11 8 -30 5 -40 -4 -13 -1 -22 9 -26 20 -8 20
-43 1 -68 -8 -11 -12 -30 -8 -47 3 -17 0 -35 -7 -44 -10 -12 -9 -22 6 -52 10
-21 17 -47 15 -57 -2 -11 6 -27 17 -35 10 -9 27 -43 37 -75 17 -57 17 -61 -1
-110 -10 -28 -19 -80 -20 -116 -2 -97 -19 -148 -55 -168 -27 -15 -30 -20 -23
-52 3 -19 5 -71 4 -115 -1 -64 -6 -84 -21 -101 -11 -11 -21 -36 -22 -55 -1
-19 -10 -42 -20 -52 -14 -14 -17 -27 -12 -61 4 -26 2 -52 -4 -65 -10 -17 -8
-23 9 -33 23 -15 26 -34 6 -41 -9 -4 -17 2 -22 15 l-6 20 -21 -20 c-17 -17
-18 -24 -8 -36 7 -8 9 -21 5 -28 -11 -17 -11 -169 -1 -248 5 -36 10 -81 12
-100 7 -65 22 -120 40 -140 12 -14 16 -28 12 -50 -5 -21 -1 -35 12 -47 40 -39
50 -91 52 -261 1 -88 3 -104 19 -112 14 -7 18 -21 18 -55 0 -34 8 -56 32 -92
18 -26 36 -57 41 -70 5 -13 17 -23 28 -23 26 0 49 -55 33 -81 -14 -23 -6 -25
14 -4 20 19 44 8 44 -20 0 -18 4 -22 20 -18 15 4 20 0 20 -13 1 -29 22 -51 58
-58 17 -4 32 -11 32 -16 0 -16 107 -62 129 -55 15 4 23 1 27 -10 5 -12 9 -13
20 -4 20 16 44 -6 44 -40 0 -46 -22 -79 -64 -95 -36 -14 -43 -14 -78 1 -21 9
-38 20 -38 25 0 4 -7 8 -15 8 -9 0 -18 7 -21 15 -4 8 -15 15 -25 15 -28 0 -24
-35 8 -58 23 -17 25 -22 15 -35 -14 -16 -79 -21 -88 -6 -3 5 -15 9 -28 9 -15
0 -33 15 -56 45 -37 49 -75 62 -65 23 3 -13 7 -34 7 -48 3 -43 41 -101 78
-120 76 -38 143 -52 215 -45 39 3 74 10 80 15 31 25 95 33 168 20 93 -17 116
-36 163 -137 20 -43 40 -80 44 -83 12 -7 16 -43 7 -57 -12 -18 11 -53 33 -53
23 0 27 -18 5 -26 -13 -5 -13 -9 1 -35 8 -16 19 -29 24 -29 6 0 10 -5 10 -10
0 -6 -12 -10 -27 -9 -16 1 -35 -1 -44 -5 -10 -4 -20 -3 -24 3 -3 6 -14 11 -24
11 -10 0 -24 7 -31 15 -7 8 -29 15 -49 15 -41 0 -61 14 -62 45 0 18 -1 18 -10
-4 -12 -30 -4 -57 19 -65 9 -3 33 -18 52 -32 34 -24 39 -25 145 -21 112 4 249
35 270 61 13 17 53 27 61 15 9 -15 23 -10 38 13 12 18 13 32 5 63 -6 22 -12
52 -13 67 -1 14 -11 38 -20 53 -21 31 -49 133 -40 146 6 10 -22 71 -69 154
-17 29 -33 75 -38 110 -4 33 -13 61 -19 63 -5 2 -10 17 -10 32 0 16 -4 31 -9
34 -5 3 -11 23 -14 43 -4 21 -11 72 -17 113 -6 41 -17 87 -25 102 -8 14 -15
37 -15 50 0 13 -9 51 -21 83 -12 33 -23 76 -24 95 -2 19 -11 67 -20 105 -9 39
-18 81 -19 95 -2 14 -6 32 -10 41 -4 8 -8 35 -10 60 -2 24 -7 53 -12 64 -11
24 -10 177 1 223 11 48 28 39 49 -28 19 -58 46 -82 46 -40 0 26 30 26 37 0 3
-11 10 -20 15 -20 5 0 8 -10 6 -22 -2 -15 8 -34 30 -55 36 -36 52 -41 52 -18
0 8 -4 15 -10 15 -5 0 -10 9 -10 20 0 25 8 25 33 3 15 -13 21 -15 24 -5 3 6 9
12 14 12 14 0 11 -38 -3 -43 -7 -2 -10 -8 -6 -12 14 -14 57 42 51 67 -4 21 -3
22 10 6 18 -22 28 -12 21 18 -4 15 -2 24 6 24 6 0 10 10 8 23 -2 17 1 21 16
19 13 -3 17 1 13 11 -4 11 0 13 14 10 31 -8 23 26 -9 40 -26 11 -28 14 -18 38
10 22 15 25 40 18 33 -9 48 -3 27 10 -10 7 -9 10 3 14 29 11 17 27 -16 23 -18
-3 -44 -5 -57 -5 -18 -1 -22 -5 -18 -21 3 -11 1 -20 -3 -20 -14 0 -19 15 -13
38 4 17 10 21 30 16 22 -6 24 -4 18 15 -5 18 -2 21 19 21 14 0 26 4 26 10 0 5
6 7 13 4 8 -3 22 7 33 21 24 32 33 32 26 0 -2 -14 -10 -25 -16 -25 -7 0 -13
-7 -13 -15 0 -24 18 -12 38 24 15 28 18 30 27 15 11 -20 36 -9 28 12 -3 8 -1
14 4 14 5 0 17 14 25 31 13 24 21 30 39 25 15 -4 28 1 40 15 22 26 40 20 44
-14 2 -15 9 -27 17 -27 8 0 11 -7 8 -18 -3 -15 2 -18 31 -18 20 0 36 4 36 9 0
5 10 7 21 4 16 -4 28 1 41 18 10 13 31 25 46 27 20 2 27 9 28 27 1 23 19 41
42 41 6 0 12 9 12 20 0 22 -16 27 -22 8 -4 -10 -10 -10 -30 -1 -14 6 -36 9
-47 6 -17 -4 -20 -2 -15 11 3 9 2 16 -2 16 -15 -1 -44 -26 -44 -39 0 -6 -4
-11 -10 -11 -5 0 -10 5 -10 10 0 6 -7 10 -15 10 -9 0 -15 9 -15 24 0 25 -22
51 -33 39 -4 -3 -7 -1 -7 5 0 7 4 12 9 12 5 0 7 9 4 20 -3 11 0 20 6 20 6 0
11 6 11 13 0 17 -43 54 -57 50 -6 -2 -21 6 -32 18 -12 13 -21 19 -21 13 0 -5
-5 -1 -11 8 -5 9 -16 15 -23 12 -7 -3 -16 2 -19 10 -4 9 -13 16 -21 16 -9 0
-20 9 -26 21 -9 16 -14 18 -26 8 -11 -9 -14 -7 -14 10 0 12 -7 24 -15 27 -8 3
-17 14 -20 25 -4 10 -15 19 -25 19 -10 0 -25 7 -34 15 -8 8 -27 15 -43 15 -15
0 -48 5 -72 11 -32 7 -46 7 -51 -2 -4 -6 -26 -13 -49 -14 -23 -2 -53 -11 -66
-19 -13 -9 -34 -16 -45 -16 -20 0 -69 -26 -81 -43 -6 -8 -34 -26 -67 -43 -26
-13 -55 32 -63 97 -4 37 -15 73 -28 90 -25 33 -26 43 -6 35 9 -3 15 0 15 9 0
8 -6 14 -12 13 -8 -2 -12 7 -11 22 1 14 -1 32 -4 40 -11 27 -13 182 -2 202 7
13 7 23 0 32 -7 8 -6 20 4 40 8 16 12 39 8 56 -3 19 -1 30 6 30 6 0 11 7 11
15 0 8 7 15 16 15 12 0 14 3 6 13 -7 8 -7 18 -2 27 6 8 10 27 10 42 0 15 7 31
15 35 8 5 16 22 17 38 1 17 10 41 20 54 10 13 18 32 18 42 0 10 5 21 10 24 6
3 10 17 10 30 0 13 5 27 10 30 6 3 10 15 10 26 0 11 19 39 43 63 23 24 52 56
64 71 13 14 27 23 33 20 6 -4 17 -1 25 5 12 10 18 10 31 -1 12 -10 20 -10 35
-1 13 8 41 10 89 6 65 -6 71 -9 89 -40 15 -25 24 -31 40 -27 14 4 23 -1 28
-13 3 -11 22 -34 42 -52 20 -18 45 -41 57 -52 12 -11 28 -20 36 -20 9 0 21 -7
28 -15 7 -8 19 -15 26 -15 8 0 24 -10 36 -22 12 -12 34 -22 50 -23 15 -1 43
-12 61 -26 17 -13 34 -24 37 -24 21 -1 81 -35 107 -61 23 -23 38 -30 56 -27
19 4 29 -1 42 -21 13 -19 23 -24 40 -20 13 3 35 -3 56 -15 19 -12 46 -21 60
-21 19 0 26 -5 25 -17 -1 -13 7 -19 27 -21 15 -2 27 2 27 8 0 18 20 0 30 -26
9 -21 12 -23 35 -12 21 9 31 9 46 0 10 -7 27 -12 36 -12 10 0 29 -10 43 -22
19 -18 38 -23 79 -24 33 0 56 -5 59 -12 2 -7 21 -12 42 -12 21 0 43 -6 50 -15
7 -8 25 -15 41 -15 16 0 38 -9 49 -20 11 -11 28 -20 37 -20 25 0 156 -70 171
-91 16 -23 32 -25 32 -4 0 8 9 15 20 15 11 0 20 -6 20 -14 0 -9 12 -13 40 -11
22 1 40 -1 40 -5 0 -8 83 -4 107 5 17 6 80 -21 86 -37 4 -8 8 -5 12 10 8 25
20 29 29 7 9 -24 36 -18 36 8 1 21 1 21 12 2 6 -11 19 -25 27 -32 13 -9 17 -8
23 8 6 17 10 17 34 7 22 -10 28 -10 32 0 2 6 10 12 18 12 8 0 14 5 14 10 0 16
48 -19 52 -38 3 -14 4 -14 19 1 26 26 31 7 8 -30 -14 -22 -19 -42 -15 -58 7
-26 -22 -65 -48 -65 -13 0 -26 -28 -26 -58 0 -10 4 -9 16 2 19 19 36 20 52 4
7 -7 27 -13 45 -14 18 0 40 -4 50 -8 10 -5 17 -4 17 2 0 6 -9 14 -20 17 -11 3
-20 10 -20 15 0 11 58 30 74 24 8 -3 17 0 21 6 4 6 13 2 25 -12 l19 -23 1 28
c0 16 5 27 14 27 7 0 19 7 26 15 19 22 32 18 24 -7 -7 -23 -6 -23 14 -4 18 15
24 16 37 6 8 -7 15 -19 15 -26 0 -8 7 -14 16 -14 9 0 14 -7 12 -17 -2 -14 -13
-18 -43 -18 -29 -1 -41 -5 -43 -18 -4 -19 -22 -24 -22 -6 0 6 -9 1 -21 -12
-13 -16 -22 -20 -25 -12 -4 9 -14 6 -34 -9 -26 -19 -34 -20 -79 -11 -28 6 -51
6 -51 2 0 -5 11 -9 25 -9 35 0 32 -27 -5 -35 -16 -4 -34 -4 -40 0 -5 3 -10 2
-10 -3 0 -6 -9 -8 -20 -5 -11 3 -20 1 -20 -3 0 -5 -14 -24 -32 -43 -31 -33
-32 -33 -40 -11 -4 12 -17 24 -28 27 -29 8 -27 49 4 57 26 6 44 46 20 46 -8 0
-14 -4 -14 -9 0 -5 -9 -11 -20 -14 -12 -3 -20 -14 -20 -26 0 -14 -9 -25 -25
-31 -14 -5 -25 -16 -25 -25 0 -8 -6 -15 -14 -15 -8 0 -16 -7 -20 -15 -6 -17 9
-21 19 -5 10 16 25 12 25 -7 0 -18 -41 -43 -69 -43 -18 0 -41 -43 -41 -78 0
-13 -4 -20 -10 -17 -6 3 -15 -6 -21 -22 -25 -67 -42 -92 -62 -95 -12 -2 -21
-9 -19 -16 1 -8 -5 -11 -21 -7 -19 5 -25 0 -35 -28 -16 -43 -15 -47 4 -47 9 0
23 -8 30 -17 12 -17 29 -21 96 -23 18 -1 39 10 60 29 36 34 68 41 68 15 0 -12
-7 -15 -25 -12 -13 3 -22 2 -20 -2 2 -4 9 -19 15 -34 5 -15 15 -24 20 -21 8 5
8 11 1 19 -7 9 -7 16 1 24 17 17 38 15 45 -4 3 -8 12 -13 19 -10 8 3 14 1 14
-4 0 -6 7 -10 16 -10 8 0 23 -7 31 -16 13 -13 17 -13 24 -2 7 10 9 8 9 -6 0
-12 5 -16 14 -13 8 3 20 -1 26 -8 7 -8 16 -12 22 -9 5 3 16 0 24 -7 11 -9 18
-9 26 -1 18 18 28 15 28 -8 0 -10 6 -23 13 -27 17 -10 28 -51 16 -59 -16 -10
-9 -24 16 -34 29 -11 35 -34 6 -25 -30 9 -51 -5 -51 -34 0 -15 5 -32 12 -39 6
-6 10 -13 7 -15 -2 -2 -17 -13 -33 -25 -25 -19 -23 -28 7 -23 4 0 7 -8 7 -19
0 -11 7 -20 15 -20 8 0 15 -8 15 -19 0 -18 10 -22 75 -33 31 -5 56 -60 33 -74
-4 -3 -3 -14 2 -25 6 -11 15 -17 20 -14 5 3 18 1 29 -4 15 -9 20 -7 25 12 l6
22 15 -23 c11 -15 14 -32 10 -51 -3 -17 -2 -32 4 -36 16 -9 13 -35 -4 -35 -8
0 -15 8 -15 19 0 10 -6 23 -13 29 -10 9 -13 4 -14 -23 -1 -24 3 -35 13 -35 19
0 18 -16 -1 -24 -8 -3 -15 -1 -15 4 0 19 -42 10 -47 -10 -8 -31 -23 -23 -23
13 l-1 32 -30 -35 c-20 -22 -28 -28 -24 -15 18 51 18 55 -5 55 -13 0 -24 -8
-27 -20 -6 -24 -16 -25 -33 -5 -20 24 -32 17 -25 -15 7 -31 -10 -44 -21 -15
-9 23 -22 18 -39 -15 -14 -28 -14 -30 6 -40 14 -8 19 -18 16 -31 -5 -19 43
-79 64 -79 5 0 12 -7 15 -15 4 -8 15 -15 25 -15 10 0 19 -7 19 -15 0 -21 -27
-19 -60 5 -33 24 -50 13 -18 -11 12 -10 19 -21 15 -25 -4 -4 -13 -2 -19 4 -18
18 -38 14 -38 -7 0 -15 -10 -21 -42 -26 -41 -7 -58 -19 -58 -40 1 -5 7 -1 15
9 11 15 18 17 26 9 15 -15 3 -33 -21 -33 -10 0 -21 -9 -25 -20 -7 -21 10 -60
25 -60 14 0 12 18 -2 22 -6 2 -9 12 -5 21 10 26 36 9 35 -23 -1 -35 -29 -45
-67 -25 -27 13 -81 10 -81 -6 0 -5 15 -8 33 -7 23 2 32 -1 32 -12 0 -8 -9 -16
-20 -18 -11 -3 -24 -10 -28 -18 -10 -18 -45 -18 -81 1 -37 19 -44 13 -15 -14
12 -11 20 -23 17 -26 -5 -5 -59 15 -89 32 -10 6 -37 -64 -29 -77 6 -9 10 -7
14 8 6 17 15 21 42 20 22 -1 34 -6 34 -16 0 -8 -6 -12 -15 -8 -8 3 -15 1 -15
-3 0 -15 80 -50 87 -38 3 6 1 7 -6 3 -10 -7 -29 20 -19 29 7 8 48 -7 42 -16
-2 -5 3 -20 12 -34 19 -29 12 -44 -12 -25 -12 11 -17 11 -23 1 -5 -8 -18 -10
-34 -5 -17 4 -27 2 -27 -5 0 -6 -16 -11 -35 -11 -26 0 -33 -4 -29 -14 4 -11
-5 -16 -38 -18 -42 -3 -43 -4 -41 -38 l1 -35 -19 27 c-17 24 -23 26 -40 15
-20 -12 -27 -47 -9 -47 6 0 10 -5 10 -11 0 -6 -13 -8 -37 -3 -21 3 -47 6 -57
6 -11 -1 -28 4 -39 9 -13 8 -22 8 -30 0 -8 -8 -6 -11 6 -11 9 0 17 -4 17 -10
0 -9 -8 -12 -27 -9 -3 0 -10 -6 -15 -15 -11 -20 -50 -22 -42 -2 3 7 -7 26 -22
42 -14 16 -21 21 -13 11 11 -16 10 -24 -5 -52 -12 -21 -25 -33 -37 -32 -10 1
-16 3 -14 6 9 9 -50 32 -69 27 -18 -5 -18 -4 2 16 17 17 24 19 36 9 20 -17 60
4 52 26 -4 9 -1 22 5 29 9 11 6 16 -15 24 -27 10 -27 34 1 55 7 6 10 19 7 32
-8 29 -24 30 -24 1 0 -12 -2 -19 -5 -16 -3 3 -3 24 1 47 4 26 10 38 14 30 5
-6 18 -9 30 -6 17 4 19 3 10 -8 -16 -20 -2 -38 24 -31 13 3 37 1 54 -4 36 -10
44 3 12 20 -11 6 -20 18 -20 26 0 10 -6 14 -15 10 -9 -3 -15 0 -15 8 0 15 -42
56 -58 56 -17 0 -15 15 3 30 12 10 16 9 22 -6 9 -26 33 -49 33 -34 0 7 11 25
25 42 14 16 25 37 25 47 0 9 5 22 12 29 13 13 -6 42 -28 42 -18 0 -17 6 1 66
8 27 15 61 15 77 0 15 5 27 10 27 6 0 10 9 10 20 0 11 -4 20 -9 20 -8 0 -15
22 -28 98 -3 18 -9 35 -14 38 -5 3 -9 16 -9 30 0 17 -8 27 -24 34 -30 11 -56
48 -49 68 5 12 1 14 -21 8 -22 -5 -33 -2 -51 16 -53 54 -88 79 -101 74 -8 -3
-14 -1 -14 5 0 13 -58 69 -71 69 -5 0 -9 -6 -9 -12 0 -9 -3 -9 -9 1 -5 8 -16
11 -25 8 -10 -4 -16 -1 -16 8 0 23 -20 28 -34 10 -7 -10 -27 -18 -44 -19 -18
0 -34 -7 -37 -15 -5 -12 -8 -11 -23 1 -9 8 -25 18 -34 21 -10 3 -20 18 -24 32
-8 31 -11 31 -65 0 -24 -14 -51 -25 -60 -25 -8 0 -25 -11 -36 -24 -12 -14 -37
-26 -62 -30 -27 -4 -41 -11 -41 -21 0 -8 -6 -15 -14 -15 -7 0 -19 -7 -26 -15
-7 -8 -16 -12 -21 -9 -5 3 -17 -9 -27 -25 -10 -17 -30 -40 -45 -51 -15 -12
-27 -28 -27 -37 0 -8 -11 -28 -25 -45 -16 -19 -25 -42 -25 -63 0 -19 -4 -36
-8 -39 -9 -5 -27 -81 -37 -158 -3 -26 -10 -50 -15 -53 -5 -3 -7 -12 -3 -20 3
-9 0 -22 -8 -31 -7 -8 -13 -27 -15 -42 -1 -15 -4 -50 -8 -79 -4 -38 -2 -54 10
-63 8 -7 18 -10 21 -6 4 4 1 11 -7 16 -12 7 -12 12 3 28 9 10 17 31 17 46 0
39 24 28 26 -12 1 -18 -2 -35 -7 -38 -15 -9 -10 -24 6 -18 8 4 15 13 15 22 0
11 3 13 10 6 12 -12 2 -47 -11 -38 -5 3 -9 1 -9 -4 0 -10 44 -32 64 -32 21 0
69 -57 60 -72 -12 -19 -14 -77 -3 -83 5 -4 9 5 9 19 0 34 32 94 48 88 7 -2 12
-10 12 -18 0 -8 7 -17 15 -20 25 -10 17 -25 -12 -22 -20 2 -28 -2 -28 -12 0
-20 84 -27 97 -8 6 10 10 10 18 -2 15 -23 12 -47 -7 -55 -12 -4 -23 1 -32 14
-14 21 -41 29 -41 11 0 -5 -13 -24 -28 -42 -31 -36 -41 -84 -17 -74 25 9 35
-24 14 -45 -23 -23 -64 -26 -55 -4 3 8 8 21 11 28 4 9 -5 12 -36 9 -27 -3 -44
0 -49 9 -6 9 -12 10 -22 2 -7 -6 -26 -13 -41 -17 -28 -7 -28 -7 -11 19 15 23
15 25 -1 31 -10 4 -21 1 -27 -7 -6 -10 -7 -4 -3 18 8 38 -3 42 -29 12 l-18
-21 -28 31 c-35 38 -56 39 -85 5 -18 -21 -23 -23 -28 -10 -9 23 -27 20 -27 -4
0 -13 7 -20 19 -20 14 0 17 -6 14 -27 -4 -27 -4 -27 11 -9 12 15 19 17 28 8 8
-8 8 -15 -1 -26 -8 -9 -8 -16 -2 -20 6 -4 8 -13 5 -20 -6 -15 22 -76 34 -76 5
0 13 5 20 12 8 8 15 8 28 -3 15 -12 16 -12 10 7 -6 20 24 64 44 64 13 0 13
-17 0 -25 -5 -3 -14 -14 -20 -24 -7 -15 -6 -18 7 -17 9 0 23 -10 30 -24 7 -14
18 -24 24 -22 6 1 8 -2 4 -8 -3 -5 -12 -10 -20 -10 -8 0 -11 -7 -8 -20 7 -25
15 -25 38 0 18 20 18 20 36 -2 11 -11 19 -25 19 -30 0 -4 5 -7 11 -5 6 1 16
-7 22 -18 7 -11 14 -22 17 -25 3 -3 5 -14 5 -25 0 -13 8 -21 23 -23 12 -2 22
-10 22 -19 0 -9 6 -13 15 -9 8 3 22 9 30 12 10 4 15 0 15 -10 0 -8 -11 -18
-25 -22 -30 -8 -32 -20 -4 -34 15 -9 24 -8 35 1 8 6 14 10 15 8 7 -53 3 -96
-10 -107 -14 -11 -14 -11 3 -5 14 5 17 3 11 -7 -5 -9 -4 -11 4 -6 6 4 9 12 6
17 -4 5 3 9 14 9 16 0 19 -7 19 -32 0 -18 2 -44 6 -58 7 -23 6 -23 -7 -7 -14
17 -77 25 -77 9 0 -14 25 -62 32 -62 4 0 10 5 13 10 3 6 1 10 -4 10 -6 0 -11
5 -11 10 0 6 7 10 15 10 8 0 15 -4 15 -10 0 -5 8 -10 19 -10 14 0 17 -6 14
-24 -4 -17 -10 -22 -23 -19 -10 3 -21 0 -24 -6 -5 -7 2 -11 18 -11 17 0 30 -9
43 -30 13 -23 24 -30 48 -29 16 0 24 3 18 6 -13 5 -18 33 -6 33 3 0 15 -7 25
-17 11 -9 18 -11 18 -5 0 7 5 12 10 12 7 0 7 -7 0 -20 -9 -17 -7 -22 12 -29
l22 -8 -22 -14 -22 -14 21 -16 22 -16 -22 -22 c-24 -24 -41 -20 -41 11 0 11
-8 27 -17 34 -17 12 -16 13 5 14 12 0 22 4 22 8 0 12 -22 32 -36 32 -15 0 -24
-58 -13 -87 7 -19 5 -23 -11 -23 -11 0 -20 -5 -20 -11 0 -7 11 -8 30 -4 27 6
45 -8 20 -17 -6 -2 -6 -9 0 -18 8 -12 12 -12 28 3 19 17 20 17 38 0 12 -13 19
-14 22 -5 5 15 32 16 32 1 0 -22 -32 -38 -52 -26 -32 20 -32 -3 0 -42 48 -59
40 -86 -10 -36 -23 23 -26 24 -32 8 -4 -10 -2 -19 3 -21 6 -2 11 -15 11 -28 0
-21 4 -24 40 -24 25 0 40 -5 41 -12 0 -7 1 -30 3 -50 2 -20 0 -37 -3 -36 -21
2 -31 -4 -31 -20 0 -10 -5 -23 -12 -30 -9 -9 -8 -12 8 -13 10 -1 23 -1 28 0
15 3 26 -23 13 -31 -9 -6 -9 -10 -1 -16 20 -13 26 -49 9 -56 -8 -3 -15 -13
-15 -22 0 -14 3 -14 15 -4 9 7 19 10 23 6 8 -9 -39 -47 -53 -42 -5 2 -9 17 -7
34 2 24 -1 32 -12 32 -9 0 -16 9 -16 20 0 11 -5 20 -11 20 -11 0 -9 -21 7 -77
5 -19 2 -23 -15 -23 -12 0 -21 -6 -21 -15 0 -9 9 -15 21 -15 18 0 19 -2 9 -15
-7 -8 -19 -15 -27 -15 -7 0 -16 -7 -19 -15 -4 -8 -10 -15 -15 -15 -14 0 -10
26 6 40 9 7 13 21 10 30 -3 9 1 23 10 30 17 14 20 50 4 50 -6 0 -20 -11 -31
-25 -11 -14 -27 -25 -36 -26 -13 0 -12 -3 5 -11 l22 -11 -29 -29 c-25 -25 -28
-33 -19 -50 6 -11 8 -31 4 -45 -4 -19 -1 -26 15 -30 22 -6 28 -33 7 -33 -20 0
-50 41 -39 52 6 6 6 25 0 50 -5 23 -6 48 -4 55 3 8 0 23 -6 33 -10 15 -10 22
0 32 17 17 15 38 -3 38 -8 0 -15 -4 -15 -10 0 -5 -10 -14 -21 -21 -21 -11 -21
-11 -3 14 11 15 25 27 33 29 12 2 12 6 -2 20 -9 9 -17 21 -17 27 0 6 -9 11
-20 11 -23 0 -26 -10 -8 -28 23 -23 -14 -13 -39 10 -13 12 -23 17 -23 11 0 -6
6 -14 13 -16 6 -3 0 -6 -15 -6 -22 -1 -28 4 -28 19 0 11 -9 25 -20 32 -11 7
-20 16 -20 19 0 10 34 5 43 -6 11 -15 25 13 19 41 -3 17 -8 22 -16 15 -20 -17
-57 -1 -55 23 3 44 0 48 -23 32 -30 -22 -48 -20 -48 4 0 15 -7 20 -24 20 -14
0 -28 5 -32 11 -3 6 -19 9 -35 7 -20 -3 -29 0 -29 9 0 8 -6 16 -14 19 -7 3
-17 24 -20 46 -6 37 -8 39 -20 23 -9 -13 -15 -15 -20 -6 -4 6 -2 18 4 26 10
12 9 15 -4 15 -9 0 -16 5 -16 10 0 6 -7 10 -15 10 -9 0 -25 16 -36 35 -12 19
-25 35 -30 35 -13 0 -11 -44 3 -58 9 -9 9 -15 0 -24 -9 -9 -13 -7 -18 5 -3 9
-10 17 -15 17 -12 0 -11 -47 1 -55 6 -3 10 -14 10 -23 0 -13 -5 -12 -21 8 -17
21 -19 22 -15 5 5 -18 9 -102 7 -133 -2 -29 -21 2 -21 34 0 39 -15 46 -24 10
-8 -31 1 -54 25 -67 11 -5 19 -18 19 -29 0 -22 -16 -35 -25 -20 -4 6 -10 8
-15 5 -9 -6 -2 -44 13 -63 6 -7 7 -38 3 -76 -5 -49 -3 -66 8 -76 18 -14 36 -5
36 16 0 27 33 11 37 -18 3 -20 -2 -28 -17 -33 -11 -3 -20 -13 -20 -22 0 -12 7
-14 36 -8 27 5 41 2 54 -10 11 -10 24 -15 31 -13 8 3 5 11 -10 25 -15 14 -19
23 -11 28 13 8 40 -12 40 -31 0 -8 5 -14 11 -14 7 0 10 -14 7 -35 -4 -32 -2
-34 20 -28 21 5 23 3 17 -16 -3 -11 -4 -25 0 -30 8 -15 35 -1 36 18 0 9 3 11
5 4 3 -7 0 -22 -8 -35 -7 -13 -13 -43 -14 -67 -1 -24 -7 -47 -15 -51 -9 -6 -5
-13 19 -27 29 -16 31 -22 29 -63 l-2 -45 98 -3 97 -3 0 41 c0 27 4 40 14 40
21 0 34 -22 31 -52 -2 -16 1 -28 6 -28 5 0 9 5 9 10 0 6 7 10 15 10 8 0 15 -4
15 -10 0 -6 42 -10 105 -10 75 0 105 3 105 12 0 9 3 9 12 0 17 -17 48 -15 48
2 0 8 -8 17 -18 20 -24 8 -70 56 -54 56 7 0 1 17 -14 41 -14 22 -24 43 -21 45
10 10 37 -10 49 -37 7 -16 18 -29 25 -29 16 0 32 -31 25 -49 -3 -8 1 -12 9 -9
8 3 16 13 18 24 2 10 9 23 17 27 8 4 14 17 14 27 0 16 7 20 30 20 17 0 30 -4
30 -10 0 -5 -9 -10 -20 -10 -25 0 -26 -15 -2 -24 9 -3 23 -9 30 -12 7 -3 12 1
12 10 0 8 4 17 9 20 12 8 49 -26 44 -41 -5 -15 17 -29 26 -16 9 15 52 36 58
29 4 -3 -5 -15 -18 -26 -13 -11 -30 -24 -36 -30 -15 -12 -17 -40 -4 -40 4 0
16 11 26 24 16 21 20 22 32 10 18 -17 33 -10 33 17 0 12 7 19 20 19 24 0 60
-34 60 -56 0 -25 44 -13 48 14 4 28 13 28 36 -3 21 -28 61 -33 70 -10 7 19 26
19 26 0 0 -8 9 -15 20 -15 11 0 20 5 20 10 0 6 7 10 15 10 8 0 15 -4 15 -10 0
-7 145 -10 415 -10 l415 0 6 25 c3 14 4 35 1 46 -5 19 20 80 35 87 4 2 10 20
14 40 4 20 18 57 31 81 12 24 23 52 23 61 0 9 6 36 14 61 8 24 20 65 27 92 8
26 25 60 39 75 14 15 33 40 43 55 15 23 15 27 2 27 -22 0 -19 27 4 35 30 9 72
81 65 110 -4 18 -2 25 8 25 16 0 43 34 73 92 l19 37 -25 20 -24 20 23 1 c33 0
82 28 82 46 0 9 14 32 30 51 17 18 30 42 30 53 0 10 4 21 9 25 6 3 21 29 35
58 13 28 38 66 55 83 16 16 33 42 36 56 4 15 21 44 39 65 18 21 45 64 61 97
17 34 39 62 51 67 13 4 24 18 26 31 2 13 10 23 18 23 16 0 33 12 81 60 33 32
59 48 102 66 15 6 32 20 38 30 5 10 16 19 23 19 14 0 76 55 76 69 0 4 9 16 19
25 10 10 22 33 25 52 4 19 12 34 18 34 6 0 16 7 22 16 23 30 106 -72 106 -130
0 -12 6 -31 14 -41 13 -18 16 -16 52 24 22 24 73 68 114 99 91 67 140 112 140
127 0 6 15 29 33 51 44 52 71 97 97 163 11 30 32 67 46 83 13 16 24 35 24 41
0 7 11 32 24 57 51 97 67 333 38 555 -5 39 -10 129 -11 200 -2 144 -7 190 -26
220 -31 52 -64 159 -75 245 -6 52 -18 132 -27 176 -14 75 -14 88 2 158 26 115
24 205 -6 316 -14 52 -37 118 -51 145 -14 28 -28 69 -32 93 -8 53 -55 149 -93
191 -16 17 -46 66 -68 108 l-40 78 3 130 c2 128 2 130 -34 220 -20 49 -51 113
-69 140 -46 71 -133 157 -180 179 -22 11 -51 27 -64 37 -13 11 -32 19 -42 19
-32 0 -56 49 -62 128 -7 82 -19 107 -81 166 -23 21 -97 93 -166 161 -141 137
-181 166 -277 197 -38 12 -70 26 -72 31 -2 5 -22 17 -45 27 -22 10 -50 26 -61
36 -57 54 -132 112 -151 118 -12 4 -59 29 -104 56 -54 33 -97 51 -128 55 -26
3 -65 10 -87 15 -44 11 -201 45 -280 60 -28 6 -64 8 -81 4 -16 -3 -72 1 -124
10 -188 30 -316 46 -370 44 -90 -2 -226 30 -269 63 -13 11 -32 19 -42 19 -11
0 -19 5 -19 10 0 6 -7 10 -15 10 -26 0 -16 -25 18 -40 36 -17 49 -50 20 -50
-10 0 -45 -9 -77 -20 -33 -11 -80 -20 -106 -20 -25 0 -50 -4 -56 -10 -5 -5
-25 -7 -45 -4 -41 7 -70 50 -66 99 2 24 -2 31 -20 33 -18 3 -23 10 -23 32 0
29 20 45 52 41 9 -1 19 3 23 9 3 5 3 10 -2 11 -4 0 -26 3 -48 5 -69 6 -109 11
-135 17 -14 3 -43 1 -65 -3z m-1634 -1153 c-8 -8 -14 -8 -23 1 -9 9 -8 18 2
38 l14 26 9 -27 c6 -18 5 -31 -2 -38z m-115 -334 c-4 -4 -11 -1 -16 7 -16 25
-11 35 7 17 9 -9 13 -20 9 -24z m3284 -1227 c0 -3 -4 -8 -10 -11 -5 -3 -10 -1
-10 4 0 6 5 11 10 11 6 0 10 -2 10 -4z m194 -162 c4 -9 5 -19 3 -21 -8 -8 -37
10 -37 23 0 19 26 18 34 -2z m330 -79 c-19 -14 -19 -15 4 -21 23 -7 32 -44 10
-44 -18 0 -31 11 -45 37 -17 29 -16 31 5 36 37 10 46 7 26 -8z m155 -19 c10
-9 27 -16 39 -16 35 0 25 -14 -20 -28 -30 -9 -44 -10 -46 -3 -2 6 -8 8 -14 5
-6 -4 -14 -1 -18 6 -6 9 -10 6 -15 -10 -5 -15 -2 -26 6 -31 12 -8 11 -11 -1
-19 -29 -19 -40 -12 -29 19 7 21 7 36 0 50 -19 35 -3 54 41 48 22 -3 47 -12
57 -21z m-249 -100 c0 -8 -4 -18 -10 -21 -5 -3 -10 3 -10 14 0 12 5 21 10 21
6 0 10 -6 10 -14z m277 -33 c15 -32 11 -39 -14 -24 -10 6 -12 11 -5 11 10 0
10 5 2 20 -6 11 -7 20 -3 20 4 0 14 -12 20 -27z m-42 -3 c3 -5 -1 -10 -9 -10
-9 0 -19 0 -23 -1 -4 0 -9 4 -11 10 -5 14 35 14 43 1z m-542 -80 c-6 -23 -19
-26 -26 -6 -6 16 1 26 19 26 7 0 10 -8 7 -20z m607 -4 c0 -11 -19 -15 -25 -6
-3 5 1 10 9 10 9 0 16 -2 16 -4z m-755 -16 c-3 -5 -1 -19 5 -31 9 -15 9 -24 1
-32 -8 -8 -11 -6 -11 6 0 9 -7 20 -17 25 -19 11 -11 42 12 42 9 0 13 -4 10
-10z m-2097 -28 c7 -48 -56 -83 -78 -43 -13 25 -3 50 24 61 32 14 51 7 54 -18z
m197 -32 c3 -5 1 -10 -4 -10 -6 0 -11 5 -11 10 0 6 2 10 4 10 3 0 8 -4 11 -10z
m2209 -6 c23 -9 20 -27 -8 -53 -18 -17 -32 -22 -50 -17 -37 9 -36 51 2 64 34
13 37 13 56 6z m-410 -35 c-3 -5 -10 -7 -15 -3 -5 3 -7 10 -3 15 3 5 10 7 15
3 5 -3 7 -10 3 -15z m-1864 -269 c0 -5 -4 -10 -10 -10 -5 0 -10 5 -10 10 0 6
5 10 10 10 6 0 10 -4 10 -10z m-260 -130 c0 -5 -7 -10 -16 -10 -8 0 -12 5 -9
10 3 6 10 10 16 10 5 0 9 -4 9 -10z m-1223 -62 c-3 -8 -6 -5 -6 6 -1 11 2 17
5 13 3 -3 4 -12 1 -19z m913 -8 c-6 -11 -15 -20 -20 -20 -14 0 -12 27 3 33 23
10 28 7 17 -13z m2854 -13 c17 -28 17 -28 -3 -18 -25 14 -34 28 -26 42 4 6 8
9 9 7 1 -2 10 -16 20 -31z m-2489 -27 c12 -20 -13 -48 -40 -42 -31 5 -27 27 4
26 14 0 20 4 17 13 -6 15 10 18 19 3z m-1265 -31 c0 -5 -4 -9 -10 -9 -5 0 -10
7 -10 16 0 8 5 12 10 9 6 -3 10 -10 10 -16z m2290 -144 c0 -8 -4 -15 -10 -15
-5 0 -7 7 -4 15 4 8 8 15 10 15 2 0 4 -7 4 -15z m1498 -37 c8 -10 11 -18 6
-18 -18 0 -34 24 -33 50 1 20 2 21 6 5 3 -11 12 -28 21 -37z m187 -168 c3 -5
3 -16 -2 -22 -4 -7 -8 -24 -8 -37 0 -13 -6 -26 -14 -29 -10 -3 -13 2 -9 22 3
15 1 29 -3 32 -5 3 -9 14 -9 25 0 20 34 27 45 9z m36 -114 c13 -15 11 -26 -5
-26 -18 0 -24 17 -17 50 4 21 6 22 9 5 2 -11 8 -24 13 -29z m49 -6 c0 -5 -4
-10 -10 -10 -5 0 -10 5 -10 10 0 6 5 10 10 10 6 0 10 -4 10 -10z m-440 -39 c0
-6 -4 -13 -10 -16 -5 -3 -10 1 -10 9 0 9 5 16 10 16 6 0 10 -4 10 -9z m340
-11 c0 -5 -4 -10 -10 -10 -5 0 -10 5 -10 10 0 6 5 10 10 10 6 0 10 -4 10 -10z
m-3476 -261 c-4 -8 -12 -3 -21 15 -7 14 -18 26 -23 26 -6 0 -10 8 -10 17 0 13
8 9 31 -15 18 -18 28 -36 23 -43z m3112 -21 c-9 -47 -25 -58 -24 -17 1 39 5
49 20 49 7 0 8 -12 4 -32z m-3026 -29 c0 -20 -15 -26 -25 -9 -9 15 3 43 15 35
5 -3 10 -15 10 -26z m1230 27 c0 -3 -4 -8 -10 -11 -5 -3 -10 -1 -10 4 0 6 5
11 10 11 6 0 10 -2 10 -4z m1120 -56 c0 -5 -4 -10 -10 -10 -5 0 -10 5 -10 10
0 6 5 10 10 10 6 0 10 -4 10 -10z m604 -103 c-3 -9 -15 -17 -25 -17 -23 0 -24
8 -2 32 19 21 37 10 27 -15z m643 -9 c-3 -8 -6 -5 -6 6 -1 11 2 17 5 13 3 -3
4 -12 1 -19z m-3830 -20 c-3 -8 -6 -5 -6 6 -1 11 2 17 5 13 3 -3 4 -12 1 -19z
m3233 2 c0 -5 -7 -10 -16 -10 -8 0 -12 5 -9 10 3 6 10 10 16 10 5 0 9 -4 9
-10z m-113 -36 c-1 -1 -18 1 -37 4 l-35 6 30 6 c17 3 33 1 37 -4 4 -6 6 -11 5
-12z m68 -14 c4 -11 11 -18 16 -15 5 4 9 2 9 -4 0 -20 -19 -21 -25 -1 -3 11
-13 20 -21 20 -8 0 -14 5 -14 10 0 18 29 10 35 -10z m-34 -32 c1 -7 1 -16 0
-20 0 -5 3 -8 8 -8 5 0 4 -11 -2 -25 -14 -30 -31 -27 -33 6 -1 13 -5 32 -9 42
-5 13 -2 17 14 17 12 0 22 -6 22 -12z m-2986 -8 c3 -5 2 -10 -4 -10 -5 0 -13
5 -16 10 -3 6 -2 10 4 10 5 0 13 -4 16 -10z m2205 -47 c0 -5 -5 -15 -10 -23
-7 -12 -12 -12 -22 -2 -10 10 -10 15 2 22 18 12 30 13 30 3z m61 -16 c-13 -13
-26 -3 -16 12 3 6 11 8 17 5 6 -4 6 -10 -1 -17z m674 -27 c-3 -5 -11 -10 -16
-10 -6 0 -7 5 -4 10 3 6 11 10 16 10 6 0 7 -4 4 -10z m-715 -9 c0 -5 -7 -12
-16 -15 -14 -5 -15 -4 -4 9 14 17 20 19 20 6z m-390 -15 c0 -3 -4 -8 -10 -11
-5 -3 -10 -1 -10 4 0 6 5 11 10 11 6 0 10 -2 10 -4z m-707 -23 c11 -10 -13
-32 -28 -27 -8 3 -11 12 -8 20 5 15 25 19 36 7z m679 -38 c-3 -17 -8 -23 -14
-17 -11 11 -1 55 11 47 5 -2 6 -16 3 -30z m188 -48 c0 -5 -4 -5 -10 -2 -5 3
-10 14 -10 23 0 15 2 15 10 2 5 -8 10 -19 10 -23z m100 8 c0 -8 -7 -15 -15
-15 -26 0 -18 20 13 29 1 1 2 -6 2 -14z m1550 1 c0 -3 -4 -8 -10 -11 -5 -3
-10 -1 -10 4 0 6 5 11 10 11 6 0 10 -2 10 -4z m-2070 -10 c0 -3 -4 -8 -10 -11
-5 -3 -10 -1 -10 4 0 6 5 11 10 11 6 0 10 -2 10 -4z m405 -45 c-10 -16 -25 -3
-25 22 0 20 1 20 16 5 9 -9 13 -21 9 -27z m265 14 c0 -8 -9 -15 -19 -15 -24 0
-36 16 -19 23 24 10 38 7 38 -8z m-944 -40 c-14 -30 -20 -34 -32 -24 -21 17
-17 28 11 35 14 3 25 13 25 22 0 8 3 12 6 9 4 -3 -1 -22 -10 -42z m794 36 c0
-6 -4 -13 -10 -16 -5 -3 -10 1 -10 9 0 9 5 16 10 16 6 0 10 -4 10 -9z m-930
-22 c0 -15 -21 -21 -35 -9 -22 19 -18 28 10 22 14 -2 25 -8 25 -13z m2463 -34
c-3 -8 -9 -15 -14 -15 -10 0 -12 24 -3 33 11 11 24 -3 17 -18z m-2233 -10 c10
6 12 1 7 -25 -4 -18 -7 -44 -7 -58 0 -25 0 -25 -19 -6 -14 14 -16 25 -10 42
12 31 12 32 -6 32 -8 0 -15 6 -15 13 0 23 12 28 25 10 7 -10 17 -13 25 -8z
m-60 -25 c0 -5 -2 -10 -4 -10 -3 0 -8 5 -11 10 -3 6 -1 10 4 10 6 0 11 -4 11
-10z m107 -67 c-4 -17 -4 -17 -12 0 -4 9 -4 25 0 35 8 16 8 16 12 0 3 -10 3
-26 0 -35z m57 -5 c-3 -10 0 -18 6 -18 7 0 14 9 17 20 8 29 20 25 28 -9 6 -27
8 -28 41 -21 29 7 37 5 41 -8 7 -17 22 -32 35 -32 4 0 5 7 1 16 -4 12 -1 15
13 12 11 -2 20 -13 22 -26 3 -19 6 -21 17 -12 18 15 135 25 135 12 0 -6 16
-20 37 -32 l36 -21 -17 26 c-21 32 -13 45 12 22 20 -19 42 -22 42 -8 0 10 29
12 68 5 14 -3 22 -12 22 -24 0 -13 -5 -18 -15 -14 -9 4 -15 0 -15 -10 0 -9 5
-16 10 -16 6 0 10 -7 10 -16 0 -12 -7 -14 -32 -9 -18 4 -36 12 -39 17 -3 5 -9
0 -12 -13 l-6 -22 -31 27 c-35 29 -50 32 -67 15 -15 -15 -63 14 -63 37 0 21
-19 7 -30 -22 -8 -21 -42 -36 -39 -16 5 29 -2 43 -20 37 -11 -3 -22 -1 -26 5
-4 7 -18 9 -32 5 -19 -4 -29 -1 -40 15 -11 16 -21 20 -43 15 -20 -4 -29 -2
-34 11 -5 13 -9 15 -18 6 -17 -17 -48 -15 -55 4 -3 9 0 20 8 25 8 5 13 21 11
41 -2 31 -2 32 13 14 8 -11 13 -28 9 -38z m2096 33 c0 -6 -4 -13 -10 -16 -5
-3 -10 1 -10 9 0 9 5 16 10 16 6 0 10 -4 10 -9z m40 -65 c0 -3 -4 -8 -10 -11
-5 -3 -10 -1 -10 4 0 6 5 11 10 11 6 0 10 -2 10 -4z m-1460 -40 c0 -3 -4 -8
-10 -11 -5 -3 -10 -1 -10 4 0 6 5 11 10 11 6 0 10 -2 10 -4z m-690 -26 c0 -5
-4 -10 -10 -10 -5 0 -10 5 -10 10 0 6 5 10 10 10 6 0 10 -4 10 -10z m90 0 c0
-5 -4 -10 -10 -10 -5 0 -10 5 -10 10 0 6 5 10 10 10 6 0 10 -4 10 -10z m580
-6 c11 -12 11 -18 -2 -30 -12 -12 -19 -13 -41 -3 -33 15 -35 36 -4 42 12 2 25
5 28 6 4 0 12 -6 19 -15z m1565 -59 c-3 -26 0 -35 12 -35 11 0 14 8 11 30 -3
20 0 30 8 30 18 0 27 -36 15 -58 -6 -11 -7 -23 -3 -27 4 -5 -1 -6 -10 -2 -9 3
-19 0 -22 -9 -3 -9 3 -16 19 -20 14 -3 25 -7 25 -9 0 -8 -33 -66 -40 -70 -5
-3 -7 -13 -4 -23 5 -14 4 -15 -5 -2 -8 12 -13 12 -22 3 -16 -16 -40 2 -32 23
7 18 -4 18 -23 0 -19 -20 -18 -40 2 -32 20 8 54 -20 54 -43 0 -9 -9 -41 -20
-71 -11 -30 -20 -66 -20 -79 0 -13 -3 -22 -6 -18 -3 3 -17 1 -31 -4 -47 -18
-93 -19 -93 -4 0 8 -4 15 -10 15 -5 0 -10 -13 -10 -28 0 -23 6 -30 36 -41 28
-10 35 -17 31 -32 -3 -10 -1 -22 5 -25 15 -9 -42 -35 -66 -29 -12 3 -15 2 -8
-1 14 -7 17 -44 2 -44 -16 0 -33 -41 -22 -52 6 -6 8 -17 5 -25 -5 -12 -7 -12
-14 -1 -12 18 -52 -26 -45 -50 4 -13 0 -17 -19 -18 -14 -1 -23 2 -20 6 3 5 -3
11 -12 13 -14 4 -13 5 5 6 12 0 22 7 22 16 0 7 8 18 17 24 10 5 14 13 10 17
-4 4 -13 2 -19 -4 -7 -7 -20 -12 -30 -12 -10 0 -18 -7 -18 -17 0 -13 -3 -14
-12 -5 -9 9 -2 21 32 53 40 37 42 41 19 35 -18 -4 -31 -1 -39 9 -7 8 -18 15
-25 15 -7 0 -18 6 -24 13 -8 10 -4 20 17 40 29 28 42 27 42 -3 0 -8 13 -23 29
-33 25 -15 30 -15 41 -2 7 8 9 15 5 15 -4 0 -2 7 5 15 6 8 9 22 6 33 -3 10 1
27 9 38 19 25 19 34 0 34 -8 0 -15 -4 -15 -9 0 -5 -9 -11 -20 -14 -23 -6 -27
-37 -5 -37 21 0 19 -33 -4 -47 -16 -10 -20 -9 -25 4 -4 9 -2 21 4 27 7 7 4 16
-9 30 -19 20 -21 24 -21 46 0 6 -11 8 -27 4 -28 -7 -28 -7 -10 13 11 13 26 19
38 16 19 -5 24 7 20 47 -2 12 0 12 7 1 8 -11 13 -10 28 3 11 9 28 22 39 30 20
15 20 15 -2 31 -13 9 -23 22 -23 30 0 8 -7 18 -16 23 -13 7 -13 10 -1 20 11
10 17 9 27 -3 7 -8 9 -15 5 -15 -4 0 4 -9 18 -20 14 -11 30 -20 36 -20 15 0
14 17 -1 23 -7 2 -10 7 -7 11 4 4 23 -3 43 -15 31 -18 36 -19 36 -5 0 9 4 16
8 16 16 0 7 68 -12 89 -10 11 -15 25 -11 30 9 16 25 13 25 -4 0 -8 5 -15 10
-15 6 0 13 7 16 15 4 8 16 15 29 15 13 0 25 -7 29 -15 3 -8 12 -15 21 -15 8 0
15 7 15 15 0 8 -4 15 -10 15 -5 0 -19 9 -31 21 -20 20 -20 21 -3 34 16 11 16
15 5 29 -17 20 -31 21 -31 0 0 -8 -4 -12 -10 -9 -5 3 -10 15 -10 26 0 24 -9
24 -25 2 -11 -15 -15 -15 -30 -3 -15 13 -14 15 17 30 28 14 35 15 45 2 13 -16
47 -13 49 6 2 21 4 22 18 22 10 0 13 -10 11 -35z m-2065 21 c0 -3 -4 -8 -10
-11 -5 -3 -10 -1 -10 4 0 6 5 11 10 11 6 0 10 -2 10 -4z m-60 -25 c0 -12 -20
-25 -27 -18 -7 7 6 27 18 27 5 0 9 -4 9 -9z m347 -27 c-3 -3 -12 -4 -19 -1 -8
3 -5 6 6 6 11 1 17 -2 13 -5z m1557 -9 c3 -8 1 -15 -3 -15 -5 0 -11 7 -15 15
-3 8 -1 15 3 15 5 0 11 -7 15 -15z m69 -37 c5 -37 3 -43 -12 -33 -13 8 -15 65
-2 65 5 0 11 -15 14 -32z m52 -27 c-9 -8 -25 21 -25 44 0 16 3 14 15 -9 9 -16
13 -32 10 -35z m-1935 23 c0 -8 -7 -14 -15 -14 -15 0 -21 21 -9 33 10 9 24 -2
24 -19z m1723 -101 c-6 -15 -23 -18 -23 -4 0 5 -9 11 -21 14 -12 3 -18 10 -15
15 9 15 65 -9 59 -25z m-1709 11 c9 -3 16 -10 16 -15 0 -14 -26 -10 -40 6 -13
16 -3 20 24 9z m1873 -26 c-3 -8 -6 -5 -6 6 -1 11 2 17 5 13 3 -3 4 -12 1 -19z
m-1897 -27 c0 -5 9 -12 19 -16 23 -7 35 -35 22 -48 -7 -7 -12 -5 -17 6 -3 9
-12 17 -19 17 -7 0 -16 7 -19 16 -9 23 -7 34 4 34 6 0 10 -4 10 -9z m1830 -7
c0 -14 -3 -14 -15 -4 -8 7 -15 14 -15 16 0 2 7 4 15 4 8 0 15 -7 15 -16z m80
-5 c0 -5 -7 -9 -15 -9 -15 0 -20 12 -9 23 8 8 24 -1 24 -14z m-1916 -45 c18
-7 12 -24 -10 -24 -8 0 -14 7 -14 15 0 17 2 18 24 9z m1756 -34 c0 -5 -4 -10
-10 -10 -5 0 -10 5 -10 10 0 6 5 10 10 10 6 0 10 -4 10 -10z m-1645 -40 c3 -5
1 -10 -4 -10 -6 0 -11 5 -11 10 0 6 2 10 4 10 3 0 8 -4 11 -10z m1609 -21 c-3
-5 -10 -7 -15 -3 -5 3 -7 10 -3 15 3 5 10 7 15 3 5 -3 7 -10 3 -15z m-1592
-111 c-13 -13 -4 -38 14 -38 8 0 14 -7 14 -15 0 -8 -3 -15 -6 -15 -3 0 -12 7
-20 15 -9 8 -24 15 -35 15 -25 0 -25 16 1 23 11 3 20 14 20 24 0 26 14 39 18
18 2 -9 -1 -22 -6 -27z m1826 31 c-2 -6 -8 -10 -13 -10 -5 0 -11 4 -13 10 -2
6 4 11 13 11 9 0 15 -5 13 -11z m-388 -19 c0 -5 -5 -10 -11 -10 -5 0 -7 5 -4
10 3 6 8 10 11 10 2 0 4 -4 4 -10z m-1370 -19 c-13 -11 -28 -17 -33 -14 -13 8
14 33 37 33 20 0 20 -1 -4 -19z m1460 9 c0 -5 -4 -10 -10 -10 -5 0 -10 5 -10
10 0 6 5 10 10 10 6 0 10 -4 10 -10z m50 -10 c0 -5 -2 -10 -4 -10 -3 0 -8 5
-11 10 -3 6 -1 10 4 10 6 0 11 -4 11 -10z m-1475 -29 c-3 -6 -11 -11 -17 -11
-6 0 -6 6 2 15 14 17 26 13 15 -4z m135 -36 c0 -8 -7 -15 -15 -15 -16 0 -20
12 -8 23 11 12 23 8 23 -8z m-163 -47 c-3 -7 -5 -2 -5 12 0 14 2 19 5 13 2 -7
2 -19 0 -25z m1689 6 c0 -10 -4 -25 -9 -31 -11 -15 -47 -17 -47 -3 0 6 7 10
15 10 9 0 15 10 15 26 0 30 25 28 26 -2z m-1586 6 c0 -5 -4 -10 -10 -10 -5 0
-10 5 -10 10 0 6 5 10 10 10 6 0 10 -4 10 -10z m-187 -15 c15 -10 17 -18 8
-32 -10 -17 -10 -16 -11 5 0 13 -6 22 -15 22 -8 0 -15 5 -15 10 0 14 11 12 33
-5z m144 -42 c-3 -3 -11 -2 -17 2 -8 5 -7 11 2 22 12 15 13 14 16 -1 2 -10 1
-20 -1 -23z m1410 15 c-3 -8 -6 -5 -6 6 -1 11 2 17 5 13 3 -3 4 -12 1 -19z
m-1500 6 c-3 -3 -12 -4 -19 -1 -8 3 -5 6 6 6 11 1 17 -2 13 -5z m143 -38 c0
-8 -4 -17 -9 -21 -12 -7 -24 12 -16 25 9 15 25 12 25 -4z m-140 -6 c27 0 54
-46 40 -68 -11 -16 -11 -16 -6 0 7 23 -60 66 -77 49 -14 -14 -37 -14 -37 -1 0
6 7 10 15 10 8 0 15 5 15 11 0 6 7 8 16 5 9 -3 24 -6 34 -6z m-1 -59 c11 -11
17 -22 14 -25 -7 -7 -53 24 -53 35 0 15 19 10 39 -10z m101 2 c0 -5 -4 -14 -9
-21 -7 -11 -9 -11 -14 1 -3 8 -3 18 0 21 9 8 23 7 23 -1z m-650 -50 c0 -24
-25 -9 -28 17 -3 21 -2 22 12 11 9 -7 16 -20 16 -28z m2002 20 c22 -20 24 -63
2 -63 -12 0 -44 54 -44 75 0 11 24 4 42 -12z m90 -18 c4 -5 24 -8 45 -7 36 2
37 1 19 -13 -11 -8 -31 -15 -44 -15 -24 0 -25 -1 -7 -20 16 -18 16 -20 2 -20
-9 0 -21 8 -26 18 -10 16 -12 16 -25 -2 -8 -10 -19 -15 -25 -11 -19 11 -12 22
20 35 l31 13 -26 22 c-14 12 -23 25 -20 28 7 6 45 -12 56 -28z m-215 -7 c-3
-7 -5 -2 -5 12 0 14 2 19 5 13 2 -7 2 -19 0 -25z m-1337 12 c0 -5 -9 -10 -20
-10 -11 0 -20 5 -20 10 0 6 9 10 20 10 11 0 20 -4 20 -10z m90 -9 c0 -6 -5
-13 -10 -16 -15 -9 -43 3 -35 15 8 13 45 13 45 1z m-67 -28 c4 -3 1 -13 -5
-21 -10 -11 -9 -17 5 -27 12 -8 14 -15 8 -20 -6 -3 -11 -18 -11 -32 0 -21 -2
-24 -15 -13 -8 7 -15 20 -15 30 0 10 -7 20 -15 24 -23 8 -18 40 8 52 28 15 32
15 40 7z m104 -30 c-3 -3 -11 -2 -17 2 -8 5 -7 11 2 22 12 15 13 14 16 -1 2
-10 1 -20 -1 -23z m160 -9 c-3 -3 -12 -4 -19 -1 -8 3 -5 6 6 6 11 1 17 -2 13
-5z m1184 -4 c20 -11 25 -35 10 -45 -10 -6 -51 32 -51 47 0 11 17 10 41 -2z
m-1939 -15 c0 -5 -5 -11 -11 -13 -6 -2 -11 4 -11 13 0 9 5 15 11 13 6 -2 11
-8 11 -13z m2008 0 c0 -8 -7 -15 -15 -15 -8 0 -15 7 -15 15 0 8 7 15 15 15 8
0 15 -7 15 -15z m-1390 -19 c0 -3 -4 -8 -10 -11 -5 -3 -10 -1 -10 4 0 6 5 11
10 11 6 0 10 -2 10 -4z m60 -11 c0 -8 -4 -15 -10 -15 -5 0 -10 7 -10 15 0 8 5
15 10 15 6 0 10 -7 10 -15z m1210 5 c0 -5 -2 -10 -4 -10 -3 0 -8 5 -11 10 -3
6 -1 10 4 10 6 0 11 -4 11 -10z m129 -34 c-11 -19 -29 -36 -39 -39 -23 -6 -24
-6 -8 28 6 14 19 25 30 25 10 0 18 5 18 10 0 6 4 10 10 10 5 0 0 -15 -11 -34z
m-1244 15 c3 -5 1 -12 -5 -16 -5 -3 -10 1 -10 9 0 18 6 21 15 7z m1015 -1 c0
-5 -10 -10 -22 -10 -19 0 -20 2 -8 10 19 13 30 13 30 0z m-50 -16 c0 -8 -19
-13 -24 -6 -3 5 1 9 9 9 8 0 15 -2 15 -3z m192 -19 c-2 -5 -8 -9 -13 -7 -5 1
-9 -3 -9 -9 0 -6 9 -9 20 -6 27 7 14 -12 -15 -23 -20 -8 -24 -15 -22 -45 2
-20 9 -40 17 -45 8 -5 11 -12 7 -16 -11 -11 -37 17 -37 40 0 12 -6 28 -12 35
-10 11 -10 14 0 18 15 6 16 30 0 35 -7 3 -9 12 -5 22 5 13 16 16 39 14 18 -2
31 -7 30 -13z m-1838 -20 c4 -10 -1 -15 -14 -15 -11 0 -20 7 -20 15 0 8 6 15
14 15 8 0 16 -7 20 -15z m46 5 c0 -5 -5 -10 -11 -10 -5 0 -7 5 -4 10 3 6 8 10
11 10 2 0 4 -4 4 -10z m364 -5 c3 -10 -1 -15 -14 -15 -20 0 -33 13 -23 24 11
11 31 6 37 -9z m102 -1 c18 -15 18 -15 -6 -10 -14 3 -29 6 -33 6 -5 0 -5 5 -2
10 9 14 18 13 41 -6z m239 -4 c3 -5 1 -10 -4 -10 -6 0 -11 5 -11 10 0 6 2 10
4 10 3 0 8 -4 11 -10z m55 1 c0 -6 -4 -13 -10 -16 -5 -3 -10 1 -10 9 0 9 5 16
10 16 6 0 10 -4 10 -9z m920 -15 c0 -3 -4 -8 -10 -11 -5 -3 -10 -1 -10 4 0 6
5 11 10 11 6 0 10 -2 10 -4z m-1206 -41 c3 -9 0 -15 -8 -15 -8 0 -16 7 -20 15
-3 9 0 15 8 15 8 0 16 -7 20 -15z m86 1 c0 -3 -4 -8 -10 -11 -5 -3 -10 -1 -10
4 0 6 5 11 10 11 6 0 10 -2 10 -4z m-990 -16 c0 -5 -4 -10 -10 -10 -5 0 -10 5
-10 10 0 6 5 10 10 10 6 0 10 -4 10 -10z m480 0 c0 -5 -5 -10 -11 -10 -5 0 -7
5 -4 10 3 6 8 10 11 10 2 0 4 -4 4 -10z m1660 -20 c0 -16 -4 -30 -9 -30 -10 0
-22 40 -15 52 11 18 24 6 24 -22z m-1718 -8 c-17 -18 -30 -25 -34 -18 -4 6 1
15 12 20 11 5 20 13 20 18 0 4 7 8 15 8 9 0 5 -9 -13 -28z m293 -9 c10 -16 34
-41 56 -58 44 -35 46 -38 19 -65 -33 -33 -55 -24 -25 10 14 16 13 20 -12 49
-19 21 -36 31 -56 31 -24 0 -27 3 -18 14 9 11 9 15 0 18 -13 4 -4 28 11 28 5
0 16 -12 25 -27z m1367 2 c0 -5 -5 -11 -11 -13 -6 -2 -11 4 -11 13 0 9 5 15
11 13 6 -2 11 -8 11 -13z m-1291 -5 c20 -11 27 -40 9 -40 -5 0 -10 7 -10 15 0
8 -9 15 -20 15 -11 0 -20 5 -20 10 0 13 16 13 41 0z m-631 -30 c0 -5 -4 -10
-10 -10 -5 0 -10 5 -10 10 0 6 5 10 10 10 6 0 10 -4 10 -10z m715 0 c3 -5 -1
-10 -10 -10 -9 0 -13 5 -10 10 3 6 8 10 10 10 2 0 7 -4 10 -10z m129 -17 c17
-20 17 -23 3 -23 -10 0 -17 7 -17 15 0 8 -5 15 -11 15 -5 0 -7 5 -4 11 4 6 8
9 9 7 0 -2 10 -13 20 -25z m76 -5 c0 -5 -7 -8 -15 -8 -8 0 -15 2 -15 4 0 2 -3
12 -6 21 -6 15 -4 15 15 4 11 -8 21 -17 21 -21z m-420 7 c0 -10 10 -15 29 -15
16 0 31 -6 34 -14 5 -12 -1 -12 -31 -4 -33 9 -38 8 -59 -16 -12 -14 -30 -26
-40 -26 -14 1 -11 7 15 29 17 15 32 35 32 44 0 9 5 17 10 17 6 0 10 -7 10 -15z
m-167 -68 c-4 -20 -9 -25 -18 -17 -12 10 -18 67 -8 83 10 17 31 -37 26 -66z
m347 53 c0 -5 -4 -10 -10 -10 -5 0 -10 5 -10 10 0 6 5 10 10 10 6 0 10 -4 10
-10z m-400 -26 c0 -2 -9 0 -20 6 -11 6 -20 13 -20 16 0 2 9 0 20 -6 11 -6 20
-13 20 -16z m490 6 c0 -5 -4 -10 -10 -10 -5 0 -10 5 -10 10 0 6 5 10 10 10 6
0 10 -4 10 -10z m-50 -10 c0 -5 -5 -10 -11 -10 -5 0 -7 5 -4 10 3 6 8 10 11
10 2 0 4 -4 4 -10z m-45 -30 c3 -5 1 -10 -4 -10 -6 0 -11 5 -11 10 0 6 2 10 4
10 3 0 8 -4 11 -10z m185 -5 c0 -8 -7 -15 -15 -15 -16 0 -20 12 -8 23 11 12
23 8 23 -8z m70 8 c0 -1 -9 -7 -20 -13 -16 -8 -20 -8 -20 4 0 9 8 14 20 13 11
-1 20 -2 20 -4z m-140 -13 c0 -5 -10 -10 -21 -10 -21 0 -59 -34 -59 -52 0 -4
-7 -8 -16 -8 -11 0 -14 5 -10 16 3 9 6 20 6 25 0 5 6 9 14 9 8 0 16 7 20 15 6
17 66 21 66 5z m-758 -32 c-9 -9 -12 -7 -12 12 0 19 3 21 12 12 9 -9 9 -15 0
-24z m455 26 c-3 -3 -12 -4 -19 -1 -8 3 -5 6 6 6 11 1 17 -2 13 -5z m91 -29
c2 -17 1 -18 -7 -4 -12 19 -60 14 -68 -7 -7 -18 -19 -18 -27 1 -7 19 27 35 69
32 21 -1 31 -8 33 -22z m702 17 c0 -10 -22 -32 -32 -32 -5 0 -3 9 4 20 13 20
28 27 28 12z m-642 -51 c-19 -31 -28 -26 -15 9 6 17 15 26 20 21 5 -5 3 -18
-5 -30z m-262 13 c-18 -18 -19 -24 -7 -43 5 -7 14 -10 20 -7 6 4 11 0 11 -8 0
-20 -14 -20 -30 -1 -7 8 -19 15 -27 15 -12 0 -13 3 -4 14 6 7 9 21 5 30 -5 12
0 16 21 16 24 0 25 -1 11 -16z m64 4 c0 -4 -5 -10 -10 -13 -8 -5 -7 -11 1 -21
9 -11 8 -14 -5 -14 -9 0 -16 6 -16 14 0 8 -3 21 -6 30 -4 11 0 14 15 13 12 -1
21 -5 21 -9z m243 -40 c3 -10 9 -10 26 0 11 7 21 9 21 5 -1 -13 -26 -43 -36
-43 -9 0 -44 36 -44 45 0 11 29 4 33 -7z m-125 -41 c22 -25 5 -34 -20 -10 -14
15 -18 27 -13 40 6 15 8 15 12 3 3 -8 12 -23 21 -33z m252 30 c0 -14 -35 -39
-44 -30 -7 7 23 43 36 43 4 0 8 -6 8 -13z m104 4 c3 -5 -1 -12 -10 -15 -25
-10 -34 -7 -28 9 7 17 30 20 38 6z m-314 -17 c0 -9 -5 -14 -12 -12 -18 6 -21
28 -4 28 9 0 16 -7 16 -16z m247 -26 c-3 -8 -6 -5 -6 6 -1 11 2 17 5 13 3 -3
4 -12 1 -19z m116 -14 c-7 -20 -10 -18 -15 11 -4 20 -2 23 8 14 7 -6 10 -17 7
-25z m-745 -2 c2 -16 -3 -25 -20 -31 -31 -12 -41 0 -26 32 15 32 42 32 46 -1z
m692 13 c0 -8 -4 -15 -10 -15 -5 0 -10 7 -10 15 0 8 5 15 10 15 6 0 10 -7 10
-15z m-460 -5 c0 -5 -2 -10 -4 -10 -3 0 -8 5 -11 10 -3 6 -1 10 4 10 6 0 11
-4 11 -10z m630 -40 c0 -5 -4 -10 -10 -10 -5 0 -10 5 -10 10 0 6 5 10 10 10 6
0 10 -4 10 -10z m-932 -19 c3 -8 -1 -12 -9 -9 -7 2 -15 10 -17 17 -3 8 1 12 9
9 7 -2 15 -10 17 -17z m322 -6 c0 -8 -4 -15 -10 -15 -5 0 -10 7 -10 15 0 8 5
15 10 15 6 0 10 -7 10 -15z"/>
<path d="M5006 1251 c-4 -7 -5 -15 -2 -18 9 -9 19 4 14 18 -4 11 -6 11 -12 0z"/>
<path d="M5015 1200 c3 -5 8 -10 11 -10 2 0 4 5 4 10 0 6 -5 10 -11 10 -5 0
-7 -4 -4 -10z"/>
<path d="M4915 1170 c3 -5 8 -10 11 -10 2 0 4 5 4 10 0 6 -5 10 -11 10 -5 0
-7 -4 -4 -10z"/>
<path d="M4840 1130 c-11 -11 -23 -20 -26 -20 -7 0 -34 -27 -34 -34 0 -3 7 -6
16 -6 16 0 84 58 84 72 0 14 -20 8 -40 -12z"/>
<path d="M4948 1136 c-26 -19 -22 -23 17 -18 21 3 34 9 32 16 -5 16 -29 18
-49 2z"/>
<path d="M4877 973 c6 -14 43 -18 43 -4 0 5 -11 11 -24 13 -17 4 -23 1 -19 -9z"/>
<path d="M2470 6970 c0 -5 5 -10 10 -10 6 0 10 5 10 10 0 6 -4 10 -10 10 -5 0
-10 -4 -10 -10z"/>
<path d="M2145 6921 c-3 -5 -1 -12 5 -16 5 -3 10 1 10 9 0 18 -6 21 -15 7z"/>
<path d="M3270 6839 c0 -5 5 -7 10 -4 6 3 10 8 10 11 0 2 -4 4 -10 4 -5 0 -10
-5 -10 -11z"/>
<path d="M853 5352 c-20 -12 -21 -76 -2 -80 12 -2 16 6 16 43 0 25 -1 45 -1
45 -1 0 -6 -4 -13 -8z"/>
<path d="M835 5030 c-3 -5 1 -10 10 -10 9 0 13 5 10 10 -3 6 -8 10 -10 10 -2
0 -7 -4 -10 -10z"/>
<path d="M835 4620 c-4 -16 -5 -45 -4 -64 2 -18 -2 -41 -9 -49 -9 -10 -10 -17
-2 -22 5 -3 10 -21 10 -38 0 -20 8 -39 20 -50 11 -9 20 -13 21 -9 3 22 -4 88
-11 107 -5 14 -4 27 3 34 8 8 8 11 -1 11 -9 0 -10 15 -6 55 7 59 -9 79 -21 25z"/>
<path d="M870 4639 c0 -5 5 -7 10 -4 6 3 10 8 10 11 0 2 -4 4 -10 4 -5 0 -10
-5 -10 -11z"/>
<path d="M821 4318 c0 -7 4 -22 9 -33 7 -19 8 -19 18 5 5 14 8 28 5 33 -7 12
-33 8 -32 -5z"/>
<path d="M4361 4081 c-15 -12 -20 -21 -13 -25 11 -7 52 13 52 26 0 16 -17 15
-39 -1z"/>
<path d="M4560 3996 c0 -9 7 -16 16 -16 9 0 14 5 12 12 -6 18 -28 21 -28 4z"/>
<path d="M4390 3981 c0 -6 4 -13 10 -16 6 -3 7 1 4 9 -7 18 -14 21 -14 7z"/>
<path d="M1700 3870 c0 -5 5 -10 11 -10 5 0 7 5 4 10 -3 6 -8 10 -11 10 -2 0
-4 -4 -4 -10z"/>
<path d="M3975 3660 c3 -5 8 -10 11 -10 2 0 4 5 4 10 0 6 -5 10 -11 10 -5 0
-7 -4 -4 -10z"/>
<path d="M4037 3653 c-10 -9 -9 -23 2 -23 5 0 11 7 15 15 5 15 -5 20 -17 8z"/>
<path d="M2582 3630 c15 -23 43 -26 51 -6 6 15 -12 26 -44 26 -17 0 -18 -3 -7
-20z"/>
<path d="M3880 3614 c0 -17 22 -14 28 4 2 7 -3 12 -12 12 -9 0 -16 -7 -16 -16z"/>
<path d="M3990 3610 c0 -5 5 -10 11 -10 5 0 7 5 4 10 -3 6 -8 10 -11 10 -2 0
-4 -4 -4 -10z"/>
<path d="M2445 3420 c-3 -5 1 -10 9 -10 9 0 16 5 16 10 0 6 -4 10 -9 10 -6 0
-13 -4 -16 -10z"/>
<path d="M4450 3270 c0 -5 5 -10 11 -10 5 0 7 5 4 10 -3 6 -8 10 -11 10 -2 0
-4 -4 -4 -10z"/>
<path d="M2250 3220 c0 -19 3 -21 12 -12 9 9 9 15 0 24 -9 9 -12 7 -12 -12z"/>
<path d="M4435 3230 c-4 -7 0 -19 9 -28 13 -14 16 -14 16 -2 0 25 -16 44 -25
30z"/>
<path d="M2170 3221 c0 -5 5 -13 10 -16 6 -3 10 -2 10 4 0 5 -4 13 -10 16 -5
3 -10 2 -10 -4z"/>
<path d="M4400 3185 c0 -8 5 -15 10 -15 6 0 10 7 10 15 0 8 -4 15 -10 15 -5 0
-10 -7 -10 -15z"/>
<path d="M4437 3114 c-6 -6 1 -53 9 -63 2 -2 13 4 24 14 15 13 17 22 9 36 -10
19 -30 25 -42 13z"/>
<path d="M1850 3074 c0 -8 5 -12 10 -9 6 4 8 11 5 16 -9 14 -15 11 -15 -7z"/>
<path d="M3032 3050 c-14 -23 -15 -30 -3 -30 8 0 24 41 18 47 -2 1 -8 -7 -15
-17z"/>
<path d="M4575 2920 c-4 -7 1 -21 14 -33 24 -24 27 -14 7 22 -9 17 -15 20 -21
11z"/>
<path d="M2084 2515 c3 -9 6 -19 6 -21 0 -9 39 -3 45 7 9 13 7 15 -29 23 -24
6 -27 4 -22 -9z"/>
<path d="M4414 2515 c10 -8 23 -12 29 -8 11 7 -12 23 -33 23 -12 -1 -11 -4 4
-15z"/>
<path d="M4388 2473 c7 -3 16 -2 19 1 4 3 -2 6 -13 5 -11 0 -14 -3 -6 -6z"/>
<path d="M2067 2463 c-4 -3 -7 -11 -7 -17 0 -6 5 -5 12 2 6 6 9 14 7 17 -3 3
-9 2 -12 -2z"/>
<path d="M2185 2440 c3 -5 8 -10 11 -10 2 0 4 5 4 10 0 6 -5 10 -11 10 -5 0
-7 -4 -4 -10z"/>
<path d="M4340 2430 c0 -5 5 -10 10 -10 6 0 10 5 10 10 0 6 -4 10 -10 10 -5 0
-10 -4 -10 -10z"/>
<path d="M3810 2410 c0 -5 5 -10 10 -10 6 0 10 5 10 10 0 6 -4 10 -10 10 -5 0
-10 -4 -10 -10z"/>
<path d="M2143 2403 c9 -2 23 -2 30 0 6 3 -1 5 -18 5 -16 0 -22 -2 -12 -5z"/>
<path d="M3785 2360 c3 -5 8 -10 11 -10 2 0 4 5 4 10 0 6 -5 10 -11 10 -5 0
-7 -4 -4 -10z"/>
<path d="M3780 2231 c-14 -27 -13 -30 10 -24 11 3 20 14 20 24 0 25 -16 24
-30 0z"/>
<path d="M4215 2230 c-3 -5 3 -10 15 -10 12 0 18 5 15 10 -3 6 -10 10 -15 10
-5 0 -12 -4 -15 -10z"/>
<path d="M3800 2170 c0 -5 5 -10 10 -10 6 0 10 5 10 10 0 6 -4 10 -10 10 -5 0
-10 -4 -10 -10z"/>
<path d="M3876 2133 c-4 -9 -2 -21 4 -27 5 -5 10 -21 10 -35 0 -23 1 -23 19
-7 21 19 41 14 41 -10 0 -8 5 -14 10 -14 6 0 8 11 4 26 -6 25 -5 26 20 22 29
-6 34 3 11 22 -9 7 -25 10 -42 5 -16 -4 -25 -3 -21 1 11 10 -11 34 -32 34 -10
0 -21 -8 -24 -17z"/>
<path d="M4011 2136 c-9 -11 -8 -15 5 -20 23 -9 38 8 21 23 -11 9 -17 8 -26
-3z"/>
<path d="M4035 2090 c-3 -5 -2 -10 4 -10 5 0 13 5 16 10 3 6 2 10 -4 10 -5 0
-13 -4 -16 -10z"/>
<path d="M2735 2080 c-3 -5 -1 -10 4 -10 6 0 11 5 11 10 0 6 -2 10 -4 10 -3 0
-8 -4 -11 -10z"/>
<path d="M3740 2049 c0 -5 5 -7 10 -4 6 3 10 8 10 11 0 2 -4 4 -10 4 -5 0 -10
-5 -10 -11z"/>
<path d="M4015 2040 c3 -5 8 -10 11 -10 2 0 4 5 4 10 0 6 -5 10 -11 10 -5 0
-7 -4 -4 -10z"/>
<path d="M970 2016 c0 -8 5 -18 10 -21 6 -3 10 1 10 9 0 8 -4 18 -10 21 -5 3
-10 -1 -10 -9z"/>
<path d="M2260 2009 c7 -11 14 -18 17 -15 8 8 -5 36 -17 36 -7 0 -7 -6 0 -21z"/>
<path d="M3836 2021 c-3 -5 1 -11 9 -15 15 -6 29 7 18 18 -9 9 -21 8 -27 -3z"/>
<path d="M3756 2004 c-9 -22 -8 -24 9 -24 8 0 15 9 15 20 0 24 -15 27 -24 4z"/>
<path d="M3932 2008 c2 -6 10 -14 16 -16 7 -2 10 2 6 12 -7 18 -28 22 -22 4z"/>
<path d="M3886 2001 c-8 -12 10 -41 25 -41 13 0 11 13 -4 35 -10 13 -16 15
-21 6z"/>
<path d="M2307 1976 c-19 -29 -14 -35 10 -11 8 8 13 20 11 26 -2 7 -12 0 -21
-15z"/>
<path d="M2420 1990 c0 -5 5 -10 10 -10 6 0 10 5 10 10 0 6 -4 10 -10 10 -5 0
-10 -4 -10 -10z"/>
<path d="M3800 1980 c0 -5 5 -10 10 -10 6 0 10 5 10 10 0 6 -4 10 -10 10 -5 0
-10 -4 -10 -10z"/>
<path d="M3830 1940 c0 -12 8 -12 35 0 18 8 17 9 -7 9 -16 1 -28 -3 -28 -9z"/>
<path d="M2346 1925 c-3 -8 -1 -17 3 -20 5 -3 11 2 15 10 3 8 1 17 -3 20 -5 3
-11 -2 -15 -10z"/>
<path d="M2717 1933 c-12 -12 -7 -22 8 -17 8 4 15 10 15 15 0 11 -14 12 -23 2z"/>
<path d="M2662 1630 c0 -14 2 -19 5 -12 2 6 2 18 0 25 -3 6 -5 1 -5 -13z"/>
<path d="M2670 1581 c0 -5 9 -11 20 -14 11 -3 20 -12 20 -21 0 -18 16 -21 25
-5 4 6 -2 19 -14 30 -21 20 -51 26 -51 10z"/>
<path d="M6074 1538 c3 -13 8 -50 11 -83 4 -33 13 -87 20 -120 16 -70 42 -293
55 -485 6 -74 13 -153 16 -175 3 -22 7 -80 9 -130 2 -49 6 -130 9 -180 3 -49
7 -152 8 -227 l3 -138 497 0 498 0 0 339 0 339 -26 16 c-14 10 -49 38 -79 64
-55 49 -138 112 -147 112 -6 0 -69 54 -113 98 -19 17 -36 32 -39 32 -5 0 -113
72 -212 142 -33 24 -79 61 -102 84 -23 22 -70 55 -105 74 -34 18 -82 51 -107
73 -25 22 -55 44 -67 50 -12 5 -35 28 -50 51 -57 84 -88 109 -79 64z"/>
<path d="M2750 1501 c-36 -10 -35 -52 3 -62 20 -5 27 -4 27 7 0 8 -6 11 -15 8
-8 -4 -15 -1 -15 5 0 6 7 11 15 11 8 0 15 9 15 20 0 11 -1 20 -2 19 -2 -1 -14
-4 -28 -8z"/>
<path d="M1645 1430 c3 -5 14 -10 23 -10 15 0 15 2 2 10 -20 13 -33 13 -25 0z"/>
<path d="M1696 1432 c-3 -6 -1 -14 5 -17 15 -10 25 3 12 16 -7 7 -13 7 -17 1z"/>
<path d="M1595 1420 c3 -5 10 -10 16 -10 5 0 9 5 9 10 0 6 -7 10 -16 10 -8 0
-12 -4 -9 -10z"/>
<path d="M2177 1394 c-8 -8 1 -24 14 -24 5 0 9 7 9 15 0 15 -12 20 -23 9z"/>
<path d="M2166 1341 c-3 -5 1 -14 9 -21 12 -10 15 -10 15 3 0 19 -16 31 -24
18z"/>
<path d="M2080 1330 c0 -5 4 -10 9 -10 6 0 13 5 16 10 3 6 -1 10 -9 10 -9 0
-16 -4 -16 -10z"/>
<path d="M2732 1299 c2 -7 10 -15 17 -17 8 -3 12 1 9 9 -2 7 -10 15 -17 17 -8
3 -12 -1 -9 -9z"/>
<path d="M2816 1281 c-4 -7 -5 -15 -2 -18 9 -9 19 4 14 18 -4 11 -6 11 -12 0z"/>
<path d="M2216 1251 c-4 -7 -5 -15 -2 -18 9 -9 19 4 14 18 -4 11 -6 11 -12 0z"/>
<path d="M2700 1250 c0 -5 5 -10 10 -10 6 0 10 5 10 10 0 6 -4 10 -10 10 -5 0
-10 -4 -10 -10z"/>
<path d="M2171 1214 c0 -11 3 -14 6 -6 3 7 2 16 -1 19 -3 4 -6 -2 -5 -13z"/>
<path d="M2220 1196 c0 -9 5 -16 10 -16 6 0 10 4 10 9 0 6 -4 13 -10 16 -5 3
-10 -1 -10 -9z"/>
<path d="M2410 1171 c0 -6 5 -13 10 -16 6 -3 10 1 10 9 0 9 -4 16 -10 16 -5 0
-10 -4 -10 -9z"/>
<path d="M2730 1140 c0 -5 7 -10 15 -10 8 0 15 5 15 10 0 6 -7 10 -15 10 -8 0
-15 -4 -15 -10z"/>
<path d="M2310 1130 c-8 -5 -11 -12 -8 -16 4 -3 14 1 23 10 18 17 9 21 -15 6z"/>
<path d="M2940 1060 c0 -5 5 -10 10 -10 6 0 9 -5 8 -11 -2 -6 3 -14 10 -16 20
-8 14 25 -8 37 -14 7 -20 7 -20 0z"/>
<path d="M2525 1030 c-3 -5 -1 -10 4 -10 6 0 11 5 11 10 0 6 -2 10 -4 10 -3 0
-8 -4 -11 -10z"/>
<path d="M2415 1017 c-4 -10 -5 -21 -1 -24 10 -10 18 4 13 24 -4 17 -4 17 -12
0z"/>
<path d="M2750 1020 c0 -5 5 -10 10 -10 6 0 10 5 10 10 0 6 -4 10 -10 10 -5 0
-10 -4 -10 -10z"/>
<path d="M2605 1000 c-3 -5 -1 -10 4 -10 6 0 11 5 11 10 0 6 -2 10 -4 10 -3 0
-8 -4 -11 -10z"/>
<path d="M2787 984 c-4 -4 -7 -14 -7 -23 0 -11 3 -12 11 -4 6 6 10 16 7 23 -2
6 -7 8 -11 4z"/>
<path d="M2924 976 c-8 -22 3 -33 18 -18 9 9 9 15 0 24 -9 9 -13 7 -18 -6z"/>
<path d="M2440 955 c0 -8 4 -15 9 -15 5 0 11 7 15 15 3 9 0 15 -9 15 -8 0 -15
-7 -15 -15z"/>
<path d="M2587 944 c-8 -8 1 -24 14 -24 5 0 9 7 9 15 0 15 -12 20 -23 9z"/>
<path d="M2976 931 c-4 -5 -2 -20 3 -33 9 -21 10 -21 10 10 1 32 -3 39 -13 23z"/>
<path d="M2550 920 c0 -5 5 -10 11 -10 5 0 7 5 4 10 -3 6 -8 10 -11 10 -2 0
-4 -4 -4 -10z"/>
<path d="M2752 903 c1 -19 8 -33 15 -33 16 0 16 2 -2 36 l-15 29 2 -32z"/>
<path d="M2885 903 c-28 -7 -77 -51 -66 -58 6 -3 15 3 21 14 6 12 16 18 25 15
23 -9 65 5 65 21 0 15 -9 17 -45 8z"/>
<path d="M2583 883 c-15 -5 -17 -23 -4 -23 5 0 11 7 15 15 3 8 4 15 3 14 -1 0
-8 -3 -14 -6z"/>
<path d="M2950 860 c0 -5 5 -10 10 -10 6 0 10 5 10 10 0 6 -4 10 -10 10 -5 0
-10 -4 -10 -10z"/>
<path d="M2678 853 c7 -3 16 -2 19 1 4 3 -2 6 -13 5 -11 0 -14 -3 -6 -6z"/>
<path d="M2760 830 c0 -5 5 -10 10 -10 6 0 10 5 10 10 0 6 -4 10 -10 10 -5 0
-10 -4 -10 -10z"/>
<path d="M2870 825 c-10 -12 -10 -15 3 -15 8 0 20 7 27 15 10 12 10 15 -3 15
-8 0 -20 -7 -27 -15z"/>
<path d="M3003 798 c23 -30 43 -38 33 -12 -3 9 -6 22 -6 29 0 7 -10 12 -23 11
l-24 -1 20 -27z"/>
<path d="M2700 810 c-24 -8 -23 -8 8 -9 17 -1 32 4 32 9 0 11 -5 11 -40 0z"/>
<path d="M2809 803 c-11 -13 -11 -17 -1 -20 17 -6 15 -23 -3 -23 -8 0 -15 5
-15 10 0 6 -9 10 -20 10 -20 0 -20 0 1 -29 21 -29 22 -29 42 -10 11 10 21 32
21 49 1 34 -5 37 -25 13z"/>
<path d="M2643 797 c3 -7 10 -11 16 -9 6 1 11 -5 11 -13 0 -8 7 -15 15 -15 27
0 16 25 -16 37 -23 9 -29 9 -26 0z"/>
<path d="M2888 792 c-12 -2 -18 -13 -18 -30 l1 -27 12 23 c14 24 27 20 27 -9
0 -33 15 -27 17 6 2 34 -9 44 -39 37z"/>
<path d="M2970 724 c-13 -32 -13 -44 0 -44 6 0 10 -16 10 -35 0 -41 15 -47 24
-10 5 21 10 24 33 19 19 -5 24 -3 21 7 -2 8 -18 15 -34 17 -42 5 -50 17 -30
46 14 23 15 26 1 26 -9 0 -20 -12 -25 -26z"/>
<path d="M2920 654 c0 -8 5 -12 10 -9 6 3 10 10 10 16 0 5 -4 9 -10 9 -5 0
-10 -7 -10 -16z"/>
<path d="M2870 651 c0 -5 5 -13 10 -16 6 -3 10 -2 10 4 0 5 -4 13 -10 16 -5 3
-10 2 -10 -4z"/>
<path d="M3039 597 c-14 -19 -19 -20 -43 -9 -29 13 -89 17 -70 4 6 -4 16 -17
23 -29 13 -26 31 -30 31 -8 0 8 5 15 10 15 6 0 10 -7 10 -15 0 -8 -4 -15 -10
-15 -5 0 -10 -9 -10 -20 0 -29 9 -25 51 21 37 41 37 41 63 24 14 -10 26 -21
26 -26 0 -5 5 -9 10 -9 6 0 10 4 10 10 0 11 -67 80 -78 80 -4 -1 -14 -11 -23
-23z"/>
<path d="M5410 339 c0 -5 5 -7 10 -4 6 3 10 8 10 11 0 2 -4 4 -10 4 -5 0 -10
-5 -10 -11z"/>
<path d="M2426 325 c-9 -26 -7 -32 5 -12 6 10 9 21 6 23 -2 3 -7 -2 -11 -11z"/>
<path d="M5315 300 c3 -5 8 -10 11 -10 2 0 4 5 4 10 0 6 -5 10 -11 10 -5 0 -7
-4 -4 -10z"/>
<path d="M5256 263 c9 -36 12 -39 25 -26 14 14 2 53 -17 53 -11 0 -13 -7 -8
-27z"/>
<path d="M5730 270 c0 -5 4 -10 9 -10 6 0 13 5 16 10 3 6 -1 10 -9 10 -9 0
-16 -4 -16 -10z"/>
<path d="M5170 215 c0 -4 7 -19 15 -35 10 -20 20 -27 31 -23 8 3 12 11 9 17
-3 6 -8 19 -11 29 -6 15 -44 26 -44 12z"/>
<path d="M5197 133 c-4 -3 -7 -11 -7 -17 0 -6 5 -5 12 2 6 6 9 14 7 17 -3 3
-9 2 -12 -2z"/>
<path d="M5475 130 c-3 -5 -1 -10 4 -10 6 0 11 5 11 10 0 6 -2 10 -4 10 -3 0
-8 -4 -11 -10z"/>
<path d="M3293 85 c-13 -5 -23 -13 -23 -17 0 -15 -38 -8 -44 7 -8 23 -26 18
-26 -8 0 -16 9 -26 29 -34 26 -9 33 -8 62 16 36 30 37 52 2 36z"/>
<path d="M2540 48 c-7 -18 -15 -36 -18 -40 -2 -5 3 -8 10 -8 12 0 38 51 38 73
0 18 -17 3 -30 -25z"/>
<path d="M3491 26 c-15 -18 -10 -29 12 -24 9 2 12 9 8 21 -6 17 -8 18 -20 3z"/>
<path d="M3290 10 c0 -5 7 -10 15 -10 8 0 15 5 15 10 0 6 -7 10 -15 10 -8 0
-15 -4 -15 -10z"/>
<path d="M5130 10 c0 -5 5 -10 10 -10 6 0 10 5 10 10 0 6 -4 10 -10 10 -5 0
-10 -4 -10 -10z"/>
</g>
</svg>
